<svg width="32" height="32" viewBox="0 0 32 32" fill="none" xmlns="http://www.w3.org/2000/svg">
  <!-- Background circle with gradient -->
  <defs>
    <linearGradient id="grad1" x1="0%" y1="0%" x2="100%" y2="100%">
      <stop offset="0%" style="stop-color:#6366f1;stop-opacity:1" />
      <stop offset="100%" style="stop-color:#8b5cf6;stop-opacity:1" />
    </linearGradient>
  </defs>

  <!-- Circle background -->
  <circle cx="16" cy="16" r="15" fill="url(#grad1)" />

  <!-- Car icon -->
  <path d="M8 18C8 17.4477 8.44772 17 9 17H23C23.5523 17 24 17.4477 24 18V22C24 22.5523 23.5523 23 23 23H9C8.44772 23 8 22.5523 8 22V18Z" fill="white" />
  <path d="M7 12C7 11.4477 7.44772 11 8 11H10L12 9H20L22 11H24C24.5523 11 25 11.4477 25 12V13C25 13.5523 24.5523 14 24 14H8C7.44772 14 7 13.5523 7 13V12Z" fill="white" opacity="0.9"/>
  <circle cx="11" cy="20" r="1.5" fill="#6366f1" />
  <circle cx="21" cy="20" r="1.5" fill="#6366f1" />

  <!-- Dashboard chart icon overlay -->
  <rect x="6" y="6" width="8" height="8" rx="1" fill="white" opacity="0.8" />
  <rect x="7" y="10" width="2" height="3" fill="#6366f1" />
  <rect x="10" y="8" width="2" height="5" fill="#8b5cf6" />
  <rect x="13" y="9" width="2" height="4" fill="#6366f1" />
</svg>